<svg width="27" height="27" viewBox="0 0 27 27" fill="none" xmlns="http://www.w3.org/2000/svg">
<g clip-path="url(#clip0_68_1211)">
<path d="M18.1253 25.6251H6.25033C3.37382 25.6251 1.04199 23.2932 1.04199 20.4167V11.8751C1.04199 8.99857 3.37382 6.66675 6.25033 6.66675H20.417C23.2935 6.66675 25.6253 8.99857 25.6253 11.8751V14.7397M15.2087 10.8334V17.1876M15.1045 14.5834H13.3337C12.4707 14.5834 11.7712 13.8839 11.7712 13.0209V10.8334M5.20866 11.3022C5.20866 11.3022 5.83366 10.8334 6.69303 10.8334C7.74772 10.8334 8.59408 11.7058 8.59408 12.7605C8.59408 14.2383 6.57949 14.323 5.40053 15.8855C4.84949 16.6158 5.28189 17.1876 6.19673 17.1876H8.48991M22.0837 18.7501H24.5852C25.5 18.7501 25.9284 19.6314 25.3814 20.3647L22.292 25.6251M16.7712 22.0313L20.7816 13.5417M9.47949 3.12508C9.47949 1.97451 8.54673 1.04175 7.39616 1.04175C6.24559 1.04175 5.31283 1.97451 5.31283 3.12508M21.4587 3.12508C21.4587 1.97451 20.5259 1.04175 19.3753 1.04175C18.2248 1.04175 17.292 1.97451 17.292 3.12508" stroke="#F4BC01" stroke-width="2.08333" stroke-miterlimit="10" stroke-linecap="round" stroke-linejoin="round"/>
</g>
<defs>
<clipPath id="clip0_68_1211">
<rect width="26.6667" height="26.6667" fill="white"/>
</clipPath>
</defs>
</svg>