<svg width="27" height="27" viewBox="0 0 27 27" fill="none" xmlns="http://www.w3.org/2000/svg">
<g clip-path="url(#clip0_68_1232)">
<path d="M16.8852 17.4636L8.35242 11.4888C7.40992 10.8289 7.18086 9.52981 7.84081 8.58731L9.03575 6.88074C9.6957 5.93824 10.9948 5.70918 11.9373 6.36913L22.1767 13.5388C23.1192 14.1988 23.3483 15.4978 22.6883 16.4403C21.3684 18.3253 18.7703 18.7835 16.8852 17.4636Z" stroke="#F4BC01" stroke-width="2.08333" stroke-miterlimit="10" stroke-linecap="round" stroke-linejoin="round"/>
<path d="M18.9108 18.2017L17.3961 20.3649C16.7362 21.3074 15.4371 21.5365 14.4946 20.8765L5.9618 14.9018C5.0193 14.2418 4.79023 12.9428 5.45018 12.0003L7.84008 8.58716" stroke="#F4BC01" stroke-width="2.08333" stroke-miterlimit="10" stroke-linecap="round" stroke-linejoin="round"/>
<path d="M9.37533 17.2917V21.4584C9.37533 22.609 8.44256 23.5417 7.29199 23.5417H1.04199M1.04199 21.4584V25.6251M19.3753 1.04175C22.8218 1.04175 25.6253 3.84529 25.6253 7.29175M19.3753 5.20841C20.5259 5.20841 21.4587 6.14118 21.4587 7.29175M18.5915 18.6584L20.2981 19.8534" stroke="#F4BC01" stroke-width="2.08333" stroke-miterlimit="10" stroke-linecap="round" stroke-linejoin="round"/>
</g>
<defs>
<clipPath id="clip0_68_1232">
<rect width="26.6667" height="26.6667" fill="white"/>
</clipPath>
</defs>
</svg>