<svg width="27" height="27" viewBox="0 0 27 27" fill="none" xmlns="http://www.w3.org/2000/svg">
<g clip-path="url(#clip0_68_1218)">
<path d="M20.625 15.6251V21.4584C20.625 23.7596 18.7595 25.6251 16.4583 25.6251H6.04167C3.74047 25.6251 1.875 23.7596 1.875 21.4584V5.20841C1.875 2.90722 3.74047 1.04175 6.04167 1.04175H12.7274M6.04167 7.29175H10.2083M6.04167 11.4584H10.2083" stroke="#F4BC01" stroke-width="2.08333" stroke-miterlimit="10" stroke-linecap="round" stroke-linejoin="round"/>
<path d="M10.208 19.3751L12.2913 21.4584L16.458 17.2917M24.7913 3.12508V4.70841C24.7913 7.56258 23.1871 10.1876 20.6247 11.4584C18.0622 10.1876 16.458 7.56258 16.458 4.70841V3.12508C16.458 3.12508 18.3331 1.04175 20.6247 1.04175C22.9163 1.04175 24.7913 3.12508 24.7913 3.12508Z" stroke="#F4BC01" stroke-width="2.08333" stroke-miterlimit="10" stroke-linecap="round" stroke-linejoin="round"/>
</g>
<defs>
<clipPath id="clip0_68_1218">
<rect width="26.6667" height="26.6667" fill="white"/>
</clipPath>
</defs>
</svg>