<svg width="48" height="48" viewBox="0 0 48 48" fill="none" xmlns="http://www.w3.org/2000/svg">
<path d="M20 44.0004V30.8604" stroke="#F4BC01" stroke-width="4" stroke-linecap="round" stroke-linejoin="round"/>
<path d="M24 22H24.02" stroke="#F4BC01" stroke-width="4" stroke-linecap="round" stroke-linejoin="round"/>
<path d="M24 14H24.02" stroke="#F4BC01" stroke-width="4" stroke-linecap="round" stroke-linejoin="round"/>
<path d="M28 30.8604V44.0004" stroke="#F4BC01" stroke-width="4" stroke-linecap="round" stroke-linejoin="round"/>
<path d="M30 32C28.269 30.7018 26.1637 30 24 30C21.8363 30 19.731 30.7018 18 32" stroke="#F4BC01" stroke-width="4" stroke-linecap="round" stroke-linejoin="round"/>
<path d="M32 22H32.02" stroke="#F4BC01" stroke-width="4" stroke-linecap="round" stroke-linejoin="round"/>
<path d="M32 14H32.02" stroke="#F4BC01" stroke-width="4" stroke-linecap="round" stroke-linejoin="round"/>
<path d="M16 22H16.02" stroke="#F4BC01" stroke-width="4" stroke-linecap="round" stroke-linejoin="round"/>
<path d="M16 14H16.02" stroke="#F4BC01" stroke-width="4" stroke-linecap="round" stroke-linejoin="round"/>
<path d="M36 4H12C9.79086 4 8 5.79086 8 8V40C8 42.2091 9.79086 44 12 44H36C38.2091 44 40 42.2091 40 40V8C40 5.79086 38.2091 4 36 4Z" stroke="#F4BC01" stroke-width="4" stroke-linecap="round" stroke-linejoin="round"/>
</svg>