<svg width="174" height="174" viewBox="0 0 174 174" fill="none" xmlns="http://www.w3.org/2000/svg">
<circle cx="87.5" cy="87.5" r="86.5" fill="#F4BC01"/>
<path d="M88.5876 23.8367L88.7718 22.1018L95.6227 16.331C96.0191 15.9977 96.3332 15.6917 96.5649 15.413C96.7982 15.1201 96.9728 14.8354 97.0888 14.5589C97.2191 14.2839 97.3009 13.9894 97.3342 13.6752C97.3994 13.0612 97.197 12.5199 96.7269 12.0512C96.2711 11.584 95.6576 11.3095 94.8865 11.2277C94.2011 11.1549 93.5434 11.2295 92.9134 11.4514C92.2848 11.659 91.578 12.0605 90.7927 12.6558L89.6184 10.8633C90.5142 10.1786 91.4245 9.69767 92.3492 9.4204C93.2755 9.12885 94.2098 9.0331 95.1522 9.13316C96.1375 9.23776 96.9825 9.50797 97.6871 9.94379C98.4075 10.3668 98.9422 10.9074 99.2911 11.5653C99.6543 12.2248 99.7927 12.9615 99.7062 13.7754C99.6547 14.2609 99.5348 14.7103 99.3465 15.1235C99.1725 15.5383 98.9042 15.9574 98.5415 16.381C98.1947 16.7918 97.7275 17.2476 97.1401 17.7484L91.888 22.1294L99.0014 22.8629L98.7831 24.9192L88.5876 23.8367ZM108.461 27.8901L109.618 24.3933L101.52 21.7142L102.156 19.7919L112.87 13.4675L115.589 14.3673L112.68 23.1604L114.418 23.7355L113.749 25.76L112.01 25.1849L110.854 28.6817L108.461 27.8901ZM105.012 20.6233L110.288 22.3689L112.284 16.3364L105.012 20.6233ZM109.893 32.6857L127.22 20.0619L129.339 21.2594L112.031 33.8937L109.893 32.6857ZM124.364 36.3L138.057 30.9361L131.485 25.3658L132.863 23.739L141.441 31.0082L140.257 32.405L126.533 38.1382L124.364 36.3ZM136.074 47.5363L148.644 39.2112L152.545 45.1015C153.108 45.9515 153.438 46.8008 153.535 47.6494C153.652 48.502 153.538 49.2922 153.193 50.02C152.856 50.7598 152.311 51.3794 151.557 51.8789C150.755 52.4101 149.898 52.6504 148.986 52.5999C148.074 52.5493 147.227 52.2321 146.444 51.6482L142.971 57.9521L141.342 55.4918L144.658 49.6534L142.529 46.4389L137.536 49.7452L136.074 47.5363ZM144.361 45.2258L146.68 48.7277C147.124 49.3981 147.65 49.8159 148.259 49.981C148.876 50.1582 149.477 50.0525 150.064 49.664C150.627 49.2913 150.947 48.7865 151.024 48.1495C151.122 47.5166 150.949 46.8649 150.505 46.1944L148.186 42.6926L144.361 45.2258ZM144.665 62.5985C144.372 61.8651 144.244 61.1584 144.282 60.4785C144.325 59.8119 144.516 59.2253 144.854 58.7188C145.207 58.207 145.689 57.8286 146.303 57.5835C147.29 57.1893 148.203 57.2497 149.043 57.7647C149.888 58.293 150.568 59.204 151.085 60.4974C151.469 61.4575 151.666 62.4149 151.676 63.3695L152.596 63.0019C153.263 62.7356 153.683 62.3358 153.856 61.8026C154.035 61.2827 153.97 60.636 153.661 59.8626C153.48 59.4092 153.222 58.9558 152.886 58.5023C152.55 58.0489 152.098 57.5567 151.531 57.0258L152.955 55.4826C153.63 56.1255 154.195 56.7657 154.65 57.4032C155.119 58.0353 155.498 58.7115 155.785 59.4315C156.329 60.7917 156.423 61.9757 156.068 62.9834C155.713 63.9912 154.942 64.7322 153.755 65.2063L146.994 67.9072L146.075 65.6069L146.895 65.2793C146.373 64.9778 145.93 64.6056 145.568 64.1628C145.206 63.72 144.904 63.1986 144.665 62.5985ZM147.25 59.7798C146.796 59.9609 146.507 60.3008 146.381 60.7994C146.269 61.2926 146.341 61.8593 146.597 62.4994C146.794 62.9928 147.042 63.4195 147.34 63.7796C147.657 64.1477 148.022 64.4425 148.436 64.664L150.076 64.0088C150.105 63.5795 150.08 63.1488 150 62.7168C149.939 62.2928 149.815 61.8475 149.629 61.3807C149.357 60.7007 149.008 60.2139 148.582 59.9204C148.16 59.6402 147.716 59.5934 147.25 59.7798ZM143.316 70.9644L158.552 68.1889L158.996 70.6258L158 70.8072C158.927 71.5724 159.504 72.5765 159.731 73.8197C159.921 74.8651 159.838 75.8509 159.481 76.777C159.139 77.7006 158.587 78.4798 157.827 79.1145C157.084 79.7608 156.182 80.1804 155.123 80.3734C154.077 80.5639 153.086 80.4891 152.148 80.149C151.21 79.809 150.41 79.2615 149.747 78.5065C149.101 77.7631 148.682 76.8687 148.492 75.8233C148.386 75.2441 148.37 74.6706 148.441 74.1029C148.53 73.5468 148.688 73.0143 148.917 72.5057L143.767 73.4437L143.316 70.9644ZM150.574 75.1155C150.695 75.7795 150.95 76.3388 151.34 76.7933C151.746 77.2594 152.237 77.5931 152.814 77.7946C153.393 78.0102 154.015 78.0575 154.679 77.9365C155.343 77.8156 155.908 77.5521 156.374 77.1461C156.843 76.7542 157.178 76.2699 157.379 75.6931C157.595 75.1138 157.643 74.4992 157.525 73.8494C157.422 73.2843 157.219 72.7738 156.917 72.318C156.632 71.8737 156.268 71.5168 155.825 71.2472L151.226 72.0849C150.918 72.4767 150.703 72.9392 150.581 73.4722C150.476 74.0168 150.474 74.5646 150.574 75.1155ZM149.848 83.2685L160.933 82.8301L161.032 85.3482L149.948 85.7866L149.848 83.2685ZM162.553 84.0162C162.537 83.6145 162.667 83.2573 162.942 82.9446C163.217 82.6463 163.563 82.4889 163.979 82.4724C164.395 82.456 164.753 82.5855 165.051 82.8612C165.35 83.1511 165.507 83.497 165.523 83.8987C165.54 84.3148 165.41 84.6721 165.134 84.9704C164.859 85.2687 164.513 85.4261 164.097 85.4425C163.681 85.459 163.324 85.3294 163.025 85.0538C162.727 84.7782 162.57 84.4323 162.553 84.0162ZM149.145 93.2777C149.256 92.2498 149.607 91.3346 150.199 90.532C150.806 89.7309 151.564 89.1268 152.475 88.7196C153.384 88.3268 154.374 88.1882 155.445 88.3038C156.501 88.418 157.431 88.7711 158.233 89.3634C159.036 89.9556 159.641 90.707 160.048 91.6175C160.455 92.5281 160.602 93.5116 160.487 94.5681C160.426 95.1391 160.28 95.6867 160.05 96.2107C159.834 96.7362 159.538 97.2097 159.16 97.631L163.957 98.1492L164.136 100.703L148.696 99.0354L148.964 96.5513L149.949 96.6577C149.277 95.6607 149.009 94.5341 149.145 93.2777ZM151.268 93.8754C151.205 94.4608 151.247 95.0069 151.394 95.5139C151.555 96.0367 151.816 96.4911 152.179 96.8769L156.826 97.3789C157.234 97.0763 157.565 96.686 157.819 96.2079C158.085 95.7457 158.25 95.2219 158.314 94.6365C158.383 93.9941 158.29 93.3847 158.035 92.8082C157.792 92.2476 157.423 91.7817 156.929 91.4106C156.433 91.0537 155.85 90.839 155.179 90.7665C154.522 90.6956 153.906 90.7807 153.331 91.0219C152.769 91.279 152.302 91.6546 151.931 92.1489C151.559 92.6575 151.338 93.233 151.268 93.8754ZM146.923 105.847L160.859 111.602L158.162 118.132C157.773 119.074 157.254 119.823 156.605 120.379C155.964 120.953 155.245 121.301 154.449 121.423C153.648 121.558 152.829 121.453 151.993 121.107C151.104 120.74 150.425 120.165 149.956 119.381C149.487 118.597 149.276 117.717 149.321 116.742L142.154 117.394L143.28 114.667L149.974 114.145L151.446 110.581L145.911 108.296L146.923 105.847ZM153.477 111.42L151.873 115.302C151.567 116.045 151.515 116.716 151.719 117.312C151.918 117.923 152.342 118.362 152.992 118.631C153.616 118.888 154.214 118.871 154.785 118.579C155.364 118.305 155.807 117.797 156.114 117.053L157.717 113.171L153.477 111.42ZM138.35 122.504C138.976 121.593 139.748 120.913 140.666 120.464C141.577 120.026 142.537 119.833 143.548 119.883C144.563 119.953 145.514 120.292 146.402 120.902C147.289 121.512 147.946 122.268 148.371 123.17C148.797 124.073 148.977 125.015 148.911 125.998C148.858 126.989 148.534 127.917 147.94 128.78C147.347 129.644 146.609 130.261 145.728 130.631C144.838 131.013 143.892 131.147 142.89 131.034C141.9 130.928 140.943 130.558 140.02 129.924L139.47 129.546L144.276 122.551C143.761 122.337 143.242 122.242 142.72 122.267C142.198 122.291 141.698 122.436 141.221 122.7C140.755 122.972 140.363 123.339 140.046 123.801C139.753 124.227 139.542 124.674 139.412 125.142C139.274 125.622 139.239 126.077 139.309 126.509L137.104 126.98C137.052 126.142 137.125 125.365 137.322 124.647C137.519 123.928 137.862 123.214 138.35 122.504ZM145.797 123.57L142.394 128.523C142.877 128.733 143.359 128.83 143.841 128.813C144.323 128.795 144.771 128.676 145.185 128.455C145.602 128.254 145.948 127.952 146.225 127.55C146.51 127.135 146.685 126.69 146.752 126.213C146.81 125.747 146.761 125.287 146.604 124.83C146.439 124.386 146.17 123.966 145.797 123.57ZM131.32 131.063C132.018 130.36 132.762 129.804 133.553 129.395C134.344 128.986 135.14 128.745 135.942 128.671L136.223 130.772C135.462 130.886 134.792 131.071 134.214 131.327C133.637 131.603 133.135 131.955 132.71 132.383C132.204 132.892 131.886 133.396 131.756 133.894C131.636 134.402 131.728 134.808 132.034 135.111C132.279 135.354 132.563 135.455 132.888 135.413C133.213 135.371 133.598 135.187 134.044 134.861L135.715 133.606C136.606 132.933 137.437 132.585 138.209 132.562C138.991 132.549 139.692 132.852 140.314 133.469C140.803 133.955 141.099 134.502 141.203 135.111C141.307 135.74 141.222 136.395 140.951 137.076C140.679 137.758 140.224 138.419 139.587 139.061C139.02 139.632 138.392 140.101 137.703 140.469C137.003 140.847 136.248 141.108 135.436 141.253L135.125 139.213C135.835 139.048 136.448 138.828 136.965 138.552C137.492 138.286 137.958 137.95 138.363 137.542C138.788 137.114 139.045 136.682 139.135 136.245C139.225 135.828 139.128 135.478 138.842 135.195C138.588 134.942 138.298 134.836 137.973 134.878C137.659 134.93 137.258 135.139 136.772 135.507L135.116 136.746C134.235 137.429 133.399 137.782 132.607 137.805C131.825 137.838 131.128 137.551 130.517 136.944C130.028 136.459 129.737 135.876 129.643 135.196C129.56 134.526 129.659 133.825 129.941 133.093C130.222 132.381 130.682 131.704 131.32 131.063ZM124.398 131.888L133.201 144.63L131.163 146.038L130.588 145.205C130.272 146.365 129.595 147.304 128.555 148.023C127.681 148.627 126.748 148.957 125.758 149.013C124.775 149.081 123.838 148.9 122.946 148.468C122.051 148.057 121.298 147.408 120.686 146.522C120.081 145.648 119.741 144.714 119.665 143.719C119.589 142.725 119.758 141.77 120.173 140.855C120.585 139.96 121.227 139.21 122.102 138.606C122.586 138.271 123.102 138.02 123.648 137.851C124.192 137.703 124.742 137.628 125.3 137.627L122.325 133.321L124.398 131.888ZM123.604 140.212C123.049 140.596 122.644 141.059 122.39 141.601C122.133 142.163 122.031 142.748 122.085 143.356C122.127 143.973 122.34 144.559 122.723 145.114C123.107 145.669 123.58 146.076 124.142 146.333C124.692 146.599 125.271 146.705 125.88 146.651C126.496 146.609 127.076 146.4 127.62 146.025C128.092 145.698 128.474 145.304 128.765 144.841C129.053 144.398 129.228 143.919 129.291 143.404L126.634 139.558C126.15 139.439 125.64 139.434 125.104 139.542C124.565 139.671 124.065 139.894 123.604 140.212ZM110.839 144.665C111.848 144.248 112.859 144.101 113.874 144.225C114.881 144.367 115.788 144.738 116.596 145.336C117.408 145.948 118.021 146.751 118.432 147.746C118.844 148.741 118.976 149.736 118.828 150.73C118.686 151.737 118.306 152.64 117.689 153.439C117.064 154.257 116.247 154.875 115.239 155.293C114.217 155.715 113.203 155.856 112.196 155.713C111.181 155.589 110.267 155.221 109.455 154.61C108.647 154.012 108.038 153.215 107.626 152.22C107.214 151.225 107.079 150.224 107.222 149.217C107.37 148.223 107.757 147.317 108.381 146.499C108.999 145.699 109.818 145.088 110.839 144.665ZM111.68 146.695C111.096 146.937 110.632 147.3 110.289 147.784C109.932 148.273 109.716 148.821 109.641 149.428C109.571 150.047 109.662 150.662 109.915 151.272C110.173 151.896 110.543 152.395 111.025 152.771C111.506 153.147 112.047 153.381 112.645 153.476C113.23 153.575 113.815 153.504 114.399 153.263C114.969 153.026 115.433 152.664 115.789 152.174C116.146 151.684 116.362 151.136 116.438 150.53C116.5 149.929 116.402 149.317 116.144 148.694C115.891 148.083 115.528 147.581 115.054 147.187C114.572 146.811 114.032 146.576 113.433 146.482C112.835 146.388 112.25 146.459 111.68 146.695ZM103.661 147.602L105.752 158.496L103.277 158.971L103.083 157.956C102.408 158.933 101.428 159.545 100.145 159.792C99.3131 159.951 98.5446 159.909 97.8396 159.664C97.1205 159.422 96.5154 159.012 96.0242 158.433C95.5357 157.869 95.2089 157.157 95.0438 156.297L93.7404 149.507L96.2153 149.032L97.4456 155.441C97.5972 156.231 97.942 156.808 98.4799 157.172C99.0178 157.537 99.6675 157.646 100.429 157.5C100.965 157.397 101.423 157.192 101.802 156.886C102.171 156.596 102.458 156.226 102.664 155.777L101.186 148.077L103.661 147.602ZM87.4459 149.549C88.4367 149.54 89.3569 149.668 90.2065 149.934C91.0561 150.199 91.792 150.587 92.414 151.099L91.1368 152.79C90.5152 152.336 89.909 151.997 89.3183 151.773C88.7133 151.563 88.1092 151.46 87.5061 151.466C86.7882 151.472 86.2078 151.607 85.765 151.869C85.3223 152.146 85.1029 152.5 85.1068 152.93C85.1098 153.275 85.2415 153.547 85.5018 153.745C85.762 153.944 86.1654 154.084 86.7118 154.165L88.7822 154.448C89.8892 154.596 90.7251 154.934 91.2899 155.46C91.8548 156 92.1411 156.709 92.149 157.585C92.1552 158.274 91.981 158.871 91.6265 159.377C91.2578 159.897 90.7373 160.304 90.065 160.597C89.3927 160.891 88.6043 161.041 87.6996 161.049C86.8955 161.057 86.1191 160.949 85.3704 160.726C84.6073 160.503 83.8862 160.157 83.2071 159.689L84.42 158.02C85.0409 158.402 85.6321 158.677 86.1936 158.844C86.7553 159.026 87.3233 159.114 87.8977 159.109C88.5007 159.104 88.9879 158.977 89.359 158.73C89.7159 158.497 89.8926 158.179 89.889 157.777C89.8858 157.418 89.754 157.139 89.4938 156.941C89.2336 156.756 88.8017 156.624 88.1978 156.543L86.149 156.26C85.042 156.126 84.1989 155.789 83.6197 155.248C83.0406 154.722 82.7472 154.029 82.7395 153.167C82.7333 152.478 82.936 151.858 83.3475 151.309C83.7591 150.774 84.3225 150.345 85.0377 150.023C85.7385 149.715 86.5413 149.557 87.4459 149.549ZM75.8185 148.505C76.9083 148.692 77.8494 149.108 78.6418 149.754C79.4201 150.398 79.9982 151.189 80.3761 152.128C80.7374 153.079 80.827 154.085 80.6448 155.146C80.4627 156.208 80.051 157.121 79.41 157.885C78.7689 158.649 77.9883 159.207 77.0683 159.559C76.1459 159.925 75.1681 160.02 74.1349 159.842C73.1018 159.665 72.2327 159.254 71.5276 158.608C70.8083 157.96 70.2905 157.157 69.974 156.2C69.6551 155.256 69.5904 154.233 69.7799 153.129L69.8928 152.471L78.257 153.906C78.2361 153.349 78.1052 152.838 77.8643 152.374C77.6234 151.911 77.283 151.517 76.8431 151.194C76.4007 150.885 75.9036 150.683 75.3517 150.588C74.8422 150.501 74.3476 150.496 73.868 150.574C73.3743 150.65 72.9462 150.809 72.5838 151.053L71.2328 149.248C71.9712 148.85 72.7078 148.59 73.4426 148.469C74.1774 148.347 74.9693 148.359 75.8185 148.505ZM77.9686 155.714L72.0457 154.698C72.0573 155.224 72.1719 155.703 72.3894 156.134C72.6068 156.564 72.9026 156.921 73.2765 157.204C73.634 157.498 74.0533 157.687 74.5344 157.769C75.0298 157.854 75.508 157.827 75.969 157.688C76.4158 157.546 76.8136 157.308 77.1622 156.975C77.4967 156.639 77.7655 156.218 77.9686 155.714ZM59.8723 143.297C60.9593 143.82 61.921 144.537 62.7572 145.449C63.5742 146.367 64.1939 147.398 64.6162 148.541L62.3777 149.568C61.9564 148.489 61.4578 147.604 60.882 146.913C60.2931 146.216 59.5781 145.665 58.737 145.26C58.1287 144.968 57.5577 144.797 57.0238 144.747C56.4771 144.692 56.0092 144.754 55.6202 144.933C55.212 145.119 54.9115 145.413 54.7186 145.814C54.4572 146.357 54.4522 146.865 54.7036 147.336C54.9358 147.814 55.4706 148.342 56.308 148.92L58.568 150.533C59.672 151.319 60.385 152.155 60.707 153.043C61.0228 153.944 60.9474 154.879 60.4807 155.85C60.0887 156.665 59.5425 157.271 58.8422 157.667C58.1227 158.07 57.2969 158.247 56.3648 158.197C55.4328 158.147 54.4427 157.87 53.3944 157.366C52.4109 156.893 51.5116 156.262 50.6965 155.471C49.8815 154.681 49.2353 153.805 48.758 152.843L50.946 151.672C51.8536 153.463 53.0451 154.713 54.5204 155.422C55.0639 155.683 55.5801 155.836 56.0689 155.88C56.5515 155.936 56.9745 155.885 57.3382 155.725C57.6826 155.572 57.9419 155.314 58.1162 154.952C58.3526 154.46 58.3648 154.004 58.1528 153.583C57.9278 153.157 57.4582 152.692 56.744 152.189L54.5624 150.662C53.2638 149.751 52.4273 148.823 52.053 147.878C51.6788 146.934 51.7467 145.931 52.257 144.869C52.6676 144.015 53.2615 143.377 54.0385 142.954C54.7963 142.537 55.6799 142.357 56.689 142.412C57.6853 142.46 58.7464 142.756 59.8723 143.297ZM48.4498 136.328C49.3263 137.002 49.9643 137.81 50.3638 138.751C50.7519 139.683 50.894 140.653 50.7901 141.66C50.666 142.669 50.2758 143.601 49.6194 144.455C48.9629 145.308 48.173 145.924 47.2494 146.3C46.3258 146.677 45.375 146.806 44.397 146.689C43.4103 146.582 42.5014 146.209 41.6704 145.57C40.8394 144.931 40.2626 144.162 39.9402 143.262C39.6064 142.353 39.523 141.402 39.6899 140.407C39.8482 139.424 40.2686 138.488 40.9513 137.6L41.3583 137.071L48.0862 142.243C48.3277 141.741 48.4502 141.228 48.4535 140.706C48.4569 140.183 48.3394 139.676 48.1012 139.185C47.8541 138.705 47.5086 138.295 47.0647 137.953C46.6548 137.638 46.2197 137.403 45.7591 137.248C45.2871 137.085 44.8341 137.026 44.3998 137.073L44.0473 134.846C44.886 134.838 45.6587 134.952 46.3653 135.188C47.0719 135.423 47.7667 135.803 48.4498 136.328ZM46.9874 143.708L42.2232 140.045C41.9878 140.516 41.8658 140.993 41.8571 141.475C41.8485 141.958 41.9436 142.411 42.1425 142.836C42.3212 143.263 42.6041 143.626 42.9911 143.923C43.3896 144.229 43.8252 144.429 44.298 144.52C44.7594 144.603 45.2221 144.579 45.6861 144.446C46.1387 144.305 46.5725 144.059 46.9874 143.708ZM39.4935 127.935C40.2107 128.738 40.6735 129.634 40.8819 130.622C41.0807 131.6 41.0309 132.568 40.7324 133.527C40.4137 134.486 39.8526 135.323 39.0492 136.041C38.235 136.767 37.3393 137.23 36.3618 137.429C35.3748 137.617 34.4016 137.562 33.4422 137.263C32.4733 136.954 31.6302 136.398 30.913 135.594C30.3392 134.952 29.9126 134.226 29.633 133.417C29.3534 132.608 29.2527 131.783 29.3308 130.943L31.6169 130.982C31.5515 131.598 31.601 132.16 31.7654 132.668C31.9191 133.185 32.1777 133.647 32.5411 134.054C32.9523 134.515 33.4431 134.828 34.0134 134.992C34.5731 135.166 35.1515 135.189 35.7486 135.06C36.3363 134.921 36.8818 134.626 37.3853 134.177C37.878 133.737 38.2323 133.228 38.4481 132.65C38.6437 132.072 38.6871 131.484 38.5786 130.888C38.4593 130.302 38.194 129.778 37.7828 129.317C37.429 128.921 37.0187 128.623 36.552 128.424C36.0758 128.214 35.5383 128.097 34.9396 128.073L35.1103 125.871C35.9427 125.898 36.7403 126.09 37.5031 126.449C38.2658 126.807 38.9293 127.303 39.4935 127.935ZM33.4652 119.596C33.9004 120.323 34.1335 121.062 34.1648 121.814C34.1837 122.572 34.0056 123.281 33.6306 123.941C33.2482 124.588 32.6874 125.133 31.9482 125.575L25.9972 129.138L24.7139 126.994L30.3138 123.642C30.9914 123.236 31.4155 122.715 31.5861 122.077C31.7493 121.427 31.6318 120.769 31.2336 120.104C30.9533 119.636 30.604 119.276 30.1856 119.024C29.7672 118.773 29.3093 118.637 28.8119 118.616L22.1031 122.632L20.8088 120.47L30.3267 114.773L31.621 116.935L30.7524 117.455C31.8972 117.774 32.8015 118.488 33.4652 119.596ZM29.2675 112.611L18.9438 116.669L18.0218 114.324L19.2647 113.835C18.6708 113.698 18.155 113.446 17.7172 113.078C17.2742 112.697 16.9371 112.212 16.7059 111.624C16.522 111.156 16.447 110.769 16.4808 110.463L18.5656 109.643C18.5456 109.867 18.5602 110.101 18.6094 110.344C18.6534 110.573 18.72 110.802 18.8094 111.029C19.03 111.59 19.3767 112.04 19.8493 112.379C20.3167 112.704 20.8769 112.893 21.5298 112.945L28.3455 110.265L29.2675 112.611ZM26.3412 104.803L15.6381 107.717L14.9761 105.286L25.6792 102.371L26.3412 104.803ZM13.7928 106.925C13.8984 107.313 13.8523 107.69 13.6544 108.057C13.4528 108.409 13.151 108.64 12.7492 108.749C12.3474 108.859 11.9703 108.813 11.6177 108.611C11.2614 108.396 11.0304 108.094 10.9248 107.706C10.8154 107.304 10.8615 106.927 11.0631 106.574C11.2648 106.222 11.5665 105.991 11.9683 105.881C12.3701 105.772 12.7473 105.818 13.0999 106.02C13.4524 106.221 13.6834 106.523 13.7928 106.925ZM24.5783 95.0429C24.7585 96.1774 24.6336 97.0842 24.2035 97.7632C23.7712 98.428 23.0515 98.8404 22.0446 99.0004L16.0883 99.9467L16.4533 102.244L14.3473 102.579L13.9823 100.281L11.1956 100.724L10.2259 98.3263L13.5869 97.7924L13.0834 94.6228L15.1893 94.2882L15.6929 97.4578L21.1174 96.596C21.6563 96.5104 22.0212 96.3361 22.212 96.0731C22.4006 95.796 22.4499 95.3738 22.3598 94.8065C22.3125 94.5087 22.2495 94.2497 22.1709 94.0296C22.0901 93.7952 21.9857 93.5501 21.8578 93.2942L23.9212 92.9664C24.0656 93.2342 24.1988 93.5693 24.3208 93.9715C24.4429 94.3738 24.5287 94.7309 24.5783 95.0429ZM28.5989 90.2756C28.5975 90.5053 28.5818 90.735 28.5518 90.9646C28.5361 91.1799 28.5064 91.3592 28.4624 91.5025L26.287 91.4898C26.346 91.2173 26.3767 90.8872 26.379 90.4995C26.385 89.4656 25.8652 88.7231 24.8196 88.2718L24.0461 87.9442L12.8633 92.2513L12.8796 89.4727L20.9313 86.5043L12.9169 83.0972L12.9329 80.3618L25.1363 85.6889C25.967 86.0527 26.6396 86.4516 27.154 86.8854C27.6685 87.3048 28.039 87.788 28.2656 88.335C28.4921 88.882 28.6032 89.5289 28.5989 90.2756ZM26.6873 69.6759C26.3551 70.8354 25.81 71.9041 25.0519 72.8819C24.284 73.842 23.3722 74.6264 22.3166 75.2352L20.9274 73.2017C21.9199 72.6047 22.7083 71.9642 23.2926 71.2801C23.8809 70.5823 24.3035 69.7847 24.5605 68.8874C24.7464 68.2386 24.8188 67.6469 24.7777 67.1124C24.7406 66.564 24.6008 66.1132 24.3585 65.76C24.1063 65.389 23.7662 65.1422 23.3382 65.0196C22.7585 64.8536 22.2574 64.9341 21.8351 65.2612C21.4029 65.5706 20.9725 66.1867 20.5439 67.1095L19.3351 69.6088C18.7464 70.8293 18.0417 71.6731 17.2209 72.14C16.3862 72.6029 15.4512 72.6861 14.4159 72.3896C13.5462 72.1405 12.8572 71.7041 12.3487 71.0805C11.8304 70.4391 11.5173 69.6548 11.4094 68.7277C11.3015 67.8006 11.4078 66.778 11.728 65.6598C12.0286 64.6107 12.4996 63.6179 13.1413 62.6814C13.783 61.7449 14.538 60.9604 15.4063 60.3278L16.9287 62.2875C15.3164 63.4837 14.2849 64.8686 13.8341 66.4423C13.668 67.0221 13.6045 67.5566 13.6436 68.0458C13.669 68.531 13.791 68.9394 14.0097 69.2709C14.2186 69.5847 14.5163 69.7969 14.9028 69.9076C15.4274 70.0579 15.8791 69.9931 16.258 69.7132C16.6408 69.4196 17.0199 68.8784 17.3952 68.0897L18.5329 65.6821C19.2124 64.2486 19.9863 63.2678 20.8545 62.7398C21.7227 62.2118 22.7228 62.1099 23.8548 62.4341C24.7659 62.6951 25.4954 63.1729 26.0432 63.8676C26.5812 64.5445 26.9081 65.385 27.0238 66.389C27.1435 67.3793 27.0313 68.4749 26.6873 69.6759ZM31.6355 57.245C31.1183 58.2223 30.4294 58.9868 29.5687 59.5386C28.7148 60.0778 27.7828 60.3806 26.7728 60.4472C25.7568 60.4944 24.7728 60.2662 23.8209 59.7624C22.8691 59.2587 22.1299 58.5832 21.6035 57.736C21.077 56.8888 20.7898 55.9732 20.7419 54.9893C20.6813 53.9987 20.8961 53.0401 21.3864 52.1136C21.8767 51.1871 22.5384 50.4894 23.3714 50.0204C24.2112 49.5388 25.1353 49.2968 26.1439 49.2944C27.1397 49.2852 28.1327 49.5426 29.1226 50.0665L29.7128 50.3788L25.7433 57.8797C26.2793 58.0334 26.8052 58.0681 27.3211 57.9836C27.8369 57.8992 28.3169 57.6983 28.761 57.381C29.1924 57.0569 29.5391 56.6474 29.8011 56.1524C30.0429 55.6955 30.2014 55.227 30.2768 54.747C30.3588 54.2543 30.3404 53.7978 30.2217 53.3775L32.3581 52.656C32.506 53.4817 32.5233 54.2625 32.41 54.9986C32.2966 55.7347 32.0385 56.4835 31.6355 57.245ZM24.115 57.0424L26.9259 51.7309C26.422 51.5779 25.9315 51.5377 25.4545 51.6102C24.9775 51.6827 24.5464 51.8526 24.1612 52.1199C23.7701 52.3678 23.4603 52.7075 23.232 53.139C22.9969 53.5832 22.8738 54.0461 22.8627 54.5276C22.8583 54.9964 22.9603 55.4484 23.1686 55.8836C23.3837 56.3061 23.6991 56.6924 24.115 57.0424ZM34.9533 51.0005L26.1558 44.2438L27.6908 42.2451L28.7499 43.0585C28.5612 42.4791 28.5118 41.907 28.6015 41.3422C28.7 40.766 28.9417 40.2274 29.3265 39.7263C29.6327 39.3277 29.9258 39.064 30.2058 38.9351L31.9824 40.2995C31.7802 40.3977 31.5877 40.5305 31.4049 40.6979C31.2308 40.8539 31.0694 41.0286 30.9207 41.2222C30.5533 41.7006 30.3462 42.2295 30.2994 42.8092C30.2613 43.3774 30.3882 43.9547 30.6802 44.5411L36.4883 49.0018L34.9533 51.0005ZM42.9827 41.8213L31.922 36.9871L33.9329 35.101L41.6983 38.6258L38.6774 30.6509L40.6412 28.8089L44.758 40.1562L42.9827 41.8213ZM49.2398 36.1766L42.7961 27.1473L44.8474 25.6834L51.2911 34.7127L49.2398 36.1766ZM42.8996 25.1417C42.5723 25.3753 42.2025 25.4628 41.7903 25.4042C41.3897 25.3372 41.0684 25.1343 40.8265 24.7953C40.5846 24.4564 40.4971 24.0866 40.5641 23.686C40.6427 23.277 40.8457 22.9558 41.1729 22.7222C41.5119 22.4803 41.8817 22.3929 42.2823 22.4598C42.6829 22.5267 43.0041 22.7297 43.246 23.0687C43.4879 23.4076 43.5754 23.7774 43.5085 24.178C43.4415 24.5786 43.2386 24.8998 42.8996 25.1417ZM58.0615 31.1162C57.1131 31.6265 56.1342 31.8679 55.1247 31.8404C54.1278 31.8061 53.1977 31.532 52.3342 31.0183C51.4765 30.4851 50.7926 29.7443 50.2822 28.7959C49.7651 27.8349 49.5237 26.8559 49.558 25.8591C49.605 24.8554 49.8853 23.9219 50.3991 23.0584C50.9255 22.1881 51.6629 21.4978 52.6113 20.9875C53.37 20.5792 54.1753 20.3334 55.0273 20.25C55.8793 20.1666 56.7045 20.2607 57.5028 20.5322L56.9333 22.7466C56.3488 22.5393 55.7906 22.4564 55.2586 22.4981C54.7198 22.5271 54.2101 22.6709 53.7296 22.9295C53.1859 23.2221 52.7676 23.6265 52.4747 24.1429C52.175 24.6466 52.0183 25.2038 52.0045 25.8146C52.0033 26.4185 52.1627 27.0176 52.4825 27.612C52.7955 28.1936 53.2077 28.6567 53.7192 29.0011C54.2365 29.3261 54.7976 29.5052 55.4025 29.5384C56.0006 29.559 56.5715 29.423 57.1153 29.1305C57.5832 28.8787 57.9684 28.5491 58.271 28.1417C58.5862 27.7275 58.8251 27.232 58.9877 26.6553L61.0896 27.3343C60.8696 28.1376 60.4964 28.8683 59.9701 29.5266C59.4438 30.1849 58.8076 30.7147 58.0615 31.1162ZM68.3172 26.9956C67.2626 27.3279 66.2352 27.3882 65.2351 27.1764C64.2486 26.9602 63.3725 26.5212 62.6068 25.8591C61.8506 25.179 61.3106 24.3254 60.9869 23.2982C60.6633 22.271 60.6116 21.271 60.8321 20.2982C61.0525 19.3254 61.4912 18.4721 62.1482 17.7381C62.8009 16.9904 63.6272 16.4591 64.627 16.1441C65.6267 15.829 66.5878 15.7972 67.5101 16.0486C68.4461 16.2957 69.2739 16.7726 69.9934 17.4793C70.7086 18.1723 71.2345 19.053 71.5711 20.1213L71.7718 20.7581L63.6776 23.3085C63.9511 23.7944 64.3012 24.1885 64.7276 24.4908C65.1541 24.793 65.6368 24.9872 66.1758 25.0733C66.7105 25.1457 67.2449 25.0977 67.7791 24.9294C68.2721 24.7741 68.714 24.552 69.1048 24.2633C69.5093 23.9702 69.8169 23.6324 70.0276 23.2499L72.055 24.237C71.5803 24.9286 71.0441 25.4965 70.4464 25.9408C69.8487 26.3851 69.1389 26.7367 68.3172 26.9956ZM63.1068 21.5688L68.8385 19.7628C68.5873 19.2999 68.2665 18.9268 67.876 18.6433C67.4856 18.3598 67.0594 18.178 66.5975 18.0977C66.145 17.9994 65.6859 18.0236 65.2202 18.1703C64.7409 18.3213 64.3281 18.5643 63.982 18.8992C63.6496 19.2298 63.4046 19.6231 63.2472 20.0792C63.1035 20.531 63.0567 21.0275 63.1068 21.5688ZM79.1281 24.5964C78.1447 24.7176 77.2159 24.6946 76.3417 24.5275C75.4675 24.3603 74.6923 24.058 74.0163 23.6205L75.0934 21.7949C75.7624 22.1754 76.4032 22.4437 77.0156 22.5997C77.6405 22.7397 78.2522 22.7728 78.8508 22.699C79.5634 22.6112 80.1248 22.4118 80.535 22.1008C80.9434 21.7756 81.1213 21.3992 81.0686 20.9716C81.0264 20.6296 80.8648 20.3746 80.5837 20.2067C80.3025 20.0388 79.8859 19.9455 79.3338 19.9267L77.2447 19.8804C76.128 19.8589 75.2592 19.6187 74.6384 19.1599C74.0158 18.6868 73.651 18.0156 73.5438 17.1463C73.4595 16.4622 73.5648 15.8488 73.8596 15.3061C74.1669 14.7473 74.6379 14.2842 75.2726 13.9166C75.9073 13.549 76.6736 13.3099 77.5714 13.1992C78.3695 13.1008 79.1532 13.12 79.9224 13.2567C80.7058 13.3916 81.4614 13.653 82.1892 14.0407L81.1736 15.837C80.5133 15.5277 79.8948 15.3218 79.3179 15.2193C78.7392 15.1025 78.1649 15.0793 77.5948 15.1495C76.9962 15.2233 76.5266 15.4042 76.1859 15.6921C75.8577 15.9641 75.7182 16.2996 75.7674 16.6986C75.8113 17.0549 75.9738 17.317 76.255 17.4849C76.5343 17.6386 76.9786 17.7212 77.5877 17.733L79.6554 17.782C80.7704 17.7892 81.6463 18.0285 82.2831 18.4998C82.9181 18.9569 83.2884 19.6129 83.3938 20.468C83.4781 21.1521 83.347 21.7904 83.0004 22.3829C82.6521 22.9612 82.141 23.451 81.467 23.8524C80.8056 24.2377 80.0259 24.4857 79.1281 24.5964Z" fill="#14183B"/>
<circle cx="87.3506" cy="87.3439" r="54" fill="#14183B"/>
<path d="M75.6842 99.8438L72.7676 96.9272L92.7676 76.9272H74.8509V72.7605H99.8509V97.7605H95.6842V79.8438L75.6842 99.8438Z" fill="#F4BC01"/>
</svg>